<svg height="512" viewBox="0 0 512 512" width="512" xmlns="http://www.w3.org/2000/svg">
  <g>
  <path d="m448 224a8 8 0 0 0 -8-8 16.019 16.019 0 0 1 -16-16v-25.136a31.966 31.966 0 0 0 24-30.864 8 8 0 0 0 -8-8 16.019 16.019 0 0 1 -16-16v-16a88.1 88.1 0 0 0 -88-88h-48a64.057 64.057 0 0 0 -63.445 56h-16.555a24.027 24.027 0 0 0 -24 24v8a40.047 40.047 0 0 0 40 40h12a4 4 0 0 1 0 8h-12a24 24 0 0 0 0 48h27.648a88.335 88.335 0 0 0 -3.648 25.141v30.745a23.264 23.264 0 0 0 -39.051 24.02l.758 1.9a87.633 87.633 0 0 1 6.293 32.678v85.516a96 96 0 0 0 192 0v-77.757l22.059 5.515a7.861 7.861 0 0 0 1.941.242 8 8 0 0 0 7.156-11.578l-.8-1.594a136.689 136.689 0 0 1 -14.334-59.972 31.965 31.965 0 0 0 23.978-30.856zm-224-40a8 8 0 0 1 0-16h12a20 20 0 0 0 0-40h-12a24.027 24.027 0 0 1 -24-24v-8a8.008 8.008 0 0 1 8-8h24a8 8 0 0 0 8-8 16.019 16.019 0 0 1 16-16h32a16.019 16.019 0 0 1 16 16v22.859a71.534 71.534 0 0 1 -21.086 50.914l-9.141 9.141a88.228 88.228 0 0 0 -15.597 21.086zm.562 91.875-.753-1.9a7.167 7.167 0 0 1 .73-6.782c2.93-4.328 10.188-3.851 12.527.828l1.641 3.282a88.456 88.456 0 0 1 9.293 39.361v33.336a8 8 0 0 0 16 0v-16a24 24 0 0 1 48 0 8.008 8.008 0 0 1 -8 8h-16a8 8 0 0 0 0 16 24.027 24.027 0 0 1 24 24v8a24.041 24.041 0 0 1 -17.031 22.969c.141-.462.209-.953.322-1.427.1-.4.195-.792.27-1.2a23.926 23.926 0 0 0 .439-4.342v-8a24.027 24.027 0 0 0 -24-24h-40v-53.516a103.46 103.46 0 0 0 -7.438-38.609zm39.438 124.125v-16h8a8.008 8.008 0 0 1 8 8v8a8 8 0 0 1 -16 0zm128 0a80 80 0 0 1 -160 0v-16h16v16a24.027 24.027 0 0 0 24 24h16a40.047 40.047 0 0 0 40-40v-8a39.874 39.874 0 0 0 -11.184-27.719 24 24 0 0 0 11.184-20.281 39.75 39.75 0 0 0 -14.1-30.231l8.045-2.011a8 8 0 0 0 6.055-7.758v-19.055l22.422-11.211 9.578 9.578v36.688a8 8 0 0 0 6.059 7.758l25.941 6.485zm24-160a24.027 24.027 0 0 1 -24-24v-32h-16v32a40.063 40.063 0 0 0 32.055 39.2 152.83 152.83 0 0 0 9.968 53.061l-42.023-10.511v-33.75a7.994 7.994 0 0 0 -2.344-5.656l-13.656-13.656v-28.688h-16v27.055l-16 8v-24.617a105.358 105.358 0 0 1 11.332-47.211 120.6 120.6 0 0 0 12.668-53.665v-53.562h-16v53.562a105.358 105.358 0 0 1 -11.332 47.211 120.6 120.6 0 0 0 -12.668 53.665v55.312l-25.487 6.378a39.679 39.679 0 0 0 -22.513 7.985v-70.972a71.534 71.534 0 0 1 21.086-50.914l9.141-9.141a87.365 87.365 0 0 0 25.717-61.086h.056v-24a32.034 32.034 0 0 0 -32-32h-32a33.25 33.25 0 0 0 -3.965.242 47.9 47.9 0 0 1 35.965-16.242h48a72.081 72.081 0 0 1 72 72v16a32.061 32.061 0 0 0 22.582 30.586 16.023 16.023 0 0 1 -14.582 9.414 24.027 24.027 0 0 1 -24-24v-32h-16v32a40.067 40.067 0 0 0 32 39.191v24.809a32.061 32.061 0 0 0 22.582 30.586 16.023 16.023 0 0 1 -14.582 9.414z"/>
<path d="m248 72h16v16h-16z"/>
<path d="m336 280h16v16h-16z"/>
<path d="m344 312h16v16h-16z"/>
<path d="m336 344h16v16h-16z"/>
<path d="m368 344h16v16h-16z"/>
<path d="m352 376h16v16h-16z"/>
<path d="m368 408h16v16h-16z"/>
<path d="m336 408h16v16h-16z"/>
<path d="m352 440h16v16h-16z"/>
<path d="m320 440h16v16h-16z"/>
<path d="m288 440h16v16h-16z"/>
<path d="m256 440h16v16h-16z"/>
<path d="m64 200h16a48.052 48.052 0 0 1 48-48h56v-16h-56a64.073 64.073 0 0 0 -64 64z"/>
<path d="m96 200h16a16.019 16.019 0 0 1 16-16h56v-16h-56a32.034 32.034 0 0 0 -32 32z"/>
<path d="m64 216h16v16h-16z"/>
<path d="m96 216h16v16h-16z"/>
</g>
</svg>
