<svg id="outline" height="512" viewBox="0 0 512 512" width="512" xmlns="http://www.w3.org/2000/svg">
<g>
<path d="m427.5 351.193a8 8 0 0 0 4.437-6.2l37.5-299.987a18.4 18.4 0 0 0 -26.987-18.488l-398.243 214.438a8 8 0 0 0 4.263 15.03l128.456-7.556 15.123 130.1a33.151 33.151 0 0 0 61.469 13.179l73.5-96.57 92.867 55.72a8 8 0 0 0 7.615.334zm-167.147 5.117 10.258-95.01 42.6 25.561zm16.055-110.195 29.274-32.787-11.936-10.656-35.714 40a8 8 0 0 0 -1.988 4.468l-14 129.669a17.07 17.07 0 0 1 -1.963 6.131l-3.247 4.267a17.118 17.118 0 0 1 -28.891-10.484l-15.474-133.152 141.6-109.237-9.769-12.668-143.233 110.493-97.416 5.73 366.385-197.289a2.4 2.4 0 0 1 3.524 2.415l-35.975 287.8z"/>
<path d="m287.606 124h162.788v16h-162.788z" transform="matrix(.676 -.737 .737 .676 22.357 314.822)"/>
<path d="m319.751 380h64.498v16.001h-64.498z" transform="matrix(.496 -.868 .868 .496 -159.518 501.124)"/>
<path d="m119.716 316h56.569v16h-56.569z" transform="matrix(.707 -.707 .707 .707 -185.754 199.549)"/>
<path d="m97.479 384h85.041v16h-85.041z" transform="matrix(.659 -.753 .753 .659 -247.201 239.227)"/>
<path d="m210.817 444h82.365v16h-82.365z" transform="matrix(.486 -.874 .874 .486 -265.501 452.768)"/>
<path d="m275.056 384h17.889v16h-17.889z" transform="matrix(.447 -.894 .894 .447 -193.624 470.71)"/>
<path d="m315.056 432h17.889v16h-17.889z" transform="matrix(.447 -.894 .894 .447 -214.445 533.02)"/>
<path d="m191.71 61.865a8 8 0 0 0 -5.77-5.626l-28.43-7.108-14.355-28.709a8 8 0 0 0 -14.31 0l-14.355 28.709-28.43 7.108a8 8 0 0 0 -3.717 13.418l20.8 20.8-6.9 27.606a8 8 0 0 0 11.339 9.095l28.418-14.214 28.422 14.211a8 8 0 0 0 11.339-9.095l-6.9-27.606 20.8-20.8a8 8 0 0 0 2.049-7.789zm-37.367 20.478a8 8 0 0 0 -2.1 7.6l3.782 15.126-16.443-8.221a8 8 0 0 0 -7.156 0l-16.443 8.221 3.782-15.126a8 8 0 0 0 -2.1-7.6l-14.01-14.009 18.293-4.573a8 8 0 0 0 5.215-4.183l8.837-17.689 8.845 17.689a8 8 0 0 0 5.215 4.183l18.293 4.573z"/>
</g></svg>
